<mxfile host="65bd71144e" scale="1" border="10">
    <diagram id="K2GAGtM-UPYaFN9ENrqB" name="Page-1">
        <mxGraphModel dx="614" dy="614" grid="1" gridSize="10" guides="1" tooltips="1" connect="1" arrows="1" fold="1" page="1" pageScale="1" pageWidth="850" pageHeight="1100" background="#FFFFFF" math="0" shadow="0">
            <root>
                <mxCell id="0"/>
                <mxCell id="1" parent="0"/>
                <mxCell id="4" value="" style="edgeStyle=none;html=1;entryX=0.5;entryY=0;entryDx=0;entryDy=0;" parent="1" source="2" target="5" edge="1">
                    <mxGeometry relative="1" as="geometry">
                        <mxPoint x="385" y="180" as="targetPoint"/>
                    </mxGeometry>
                </mxCell>
                <mxCell id="2" value="Start" style="strokeWidth=2;html=1;shape=mxgraph.flowchart.start_1;whiteSpace=wrap;" parent="1" vertex="1">
                    <mxGeometry x="335" y="100" width="100" height="60" as="geometry"/>
                </mxCell>
                <mxCell id="7" value="" style="edgeStyle=none;html=1;" parent="1" source="5" target="6" edge="1">
                    <mxGeometry relative="1" as="geometry"/>
                </mxCell>
                <mxCell id="5" value="launch menuUI" style="rounded=1;whiteSpace=wrap;html=1;absoluteArcSize=1;arcSize=14;strokeWidth=2;" parent="1" vertex="1">
                    <mxGeometry x="335" y="190" width="100" height="40" as="geometry"/>
                </mxCell>
                <mxCell id="12" value="" style="edgeStyle=none;html=1;" parent="1" source="6" target="9" edge="1">
                    <mxGeometry relative="1" as="geometry"/>
                </mxCell>
                <mxCell id="6" value="while true" style="strokeWidth=2;html=1;shape=mxgraph.flowchart.decision;whiteSpace=wrap;" parent="1" vertex="1">
                    <mxGeometry x="335" y="260" width="100" height="70" as="geometry"/>
                </mxCell>
                <mxCell id="17" value="" style="edgeStyle=none;html=1;" parent="1" source="9" target="15" edge="1">
                    <mxGeometry relative="1" as="geometry"/>
                </mxCell>
                <mxCell id="9" value="Print menu options, &lt;br&gt;request input" style="shape=parallelogram;html=1;strokeWidth=2;perimeter=parallelogramPerimeter;whiteSpace=wrap;rounded=1;arcSize=12;size=0.23;" parent="1" vertex="1">
                    <mxGeometry x="300" y="370" width="170" height="60" as="geometry"/>
                </mxCell>
                <mxCell id="20" value="Exit" style="edgeStyle=none;html=1;labelPosition=right;verticalLabelPosition=middle;align=left;verticalAlign=middle;" parent="1" source="15" target="18" edge="1">
                    <mxGeometry relative="1" as="geometry"/>
                </mxCell>
                <mxCell id="26" value="Print student details" style="edgeStyle=none;html=1;exitX=1;exitY=0.5;exitDx=0;exitDy=0;exitPerimeter=0;verticalAlign=bottom;labelPosition=center;verticalLabelPosition=bottom;align=center;" parent="1" source="15" target="25" edge="1">
                    <mxGeometry relative="1" as="geometry"/>
                </mxCell>
                <mxCell id="29" value="Print all" style="edgeStyle=none;html=1;exitX=1;exitY=0.5;exitDx=0;exitDy=0;exitPerimeter=0;verticalAlign=middle;labelPosition=right;verticalLabelPosition=middle;align=left;entryX=0;entryY=0.5;entryDx=0;entryDy=0;entryPerimeter=0;" parent="1" source="15" target="46" edge="1">
                    <mxGeometry x="-0.3493" y="7" relative="1" as="geometry">
                        <mxPoint x="510" y="430" as="targetPoint"/>
                        <Array as="points">
                            <mxPoint x="470" y="590"/>
                        </Array>
                        <mxPoint as="offset"/>
                    </mxGeometry>
                </mxCell>
                <mxCell id="33" value="Add/ Remove" style="edgeStyle=none;html=1;verticalAlign=bottom;" parent="1" source="15" target="32" edge="1">
                    <mxGeometry x="-0.083" relative="1" as="geometry">
                        <mxPoint as="offset"/>
                    </mxGeometry>
                </mxCell>
                <mxCell id="15" value="Choice" style="strokeWidth=2;html=1;shape=mxgraph.flowchart.decision;whiteSpace=wrap;" parent="1" vertex="1">
                    <mxGeometry x="335" y="470" width="100" height="60" as="geometry"/>
                </mxCell>
                <mxCell id="52" value="" style="edgeStyle=none;html=1;verticalAlign=bottom;" parent="1" source="18" target="51" edge="1">
                    <mxGeometry relative="1" as="geometry"/>
                </mxCell>
                <mxCell id="18" value="print Thanks" style="rounded=1;whiteSpace=wrap;html=1;absoluteArcSize=1;arcSize=14;strokeWidth=2;" parent="1" vertex="1">
                    <mxGeometry x="335" y="570" width="100" height="40" as="geometry"/>
                </mxCell>
                <mxCell id="58" value="" style="edgeStyle=none;html=1;verticalAlign=bottom;exitX=0;exitY=0.5;exitDx=0;exitDy=0;" parent="1" source="61" target="6" edge="1">
                    <mxGeometry relative="1" as="geometry">
                        <mxPoint x="607.5" y="295" as="sourcePoint"/>
                    </mxGeometry>
                </mxCell>
                <mxCell id="57" value="" style="edgeStyle=none;html=1;verticalAlign=bottom;" parent="1" source="25" target="40" edge="1">
                    <mxGeometry relative="1" as="geometry"/>
                </mxCell>
                <mxCell id="25" value="Student Details" style="shape=parallelogram;html=1;strokeWidth=2;perimeter=parallelogramPerimeter;whiteSpace=wrap;rounded=1;arcSize=12;size=0.23;" parent="1" vertex="1">
                    <mxGeometry x="540" y="470" width="120" height="60" as="geometry"/>
                </mxCell>
                <mxCell id="35" style="edgeStyle=none;html=1;exitX=0.25;exitY=0;exitDx=0;exitDy=0;verticalAlign=bottom;entryX=0.5;entryY=1;entryDx=0;entryDy=0;" parent="1" source="32" target="39" edge="1">
                    <mxGeometry relative="1" as="geometry">
                        <mxPoint x="140" y="430" as="targetPoint"/>
                    </mxGeometry>
                </mxCell>
                <mxCell id="37" style="edgeStyle=none;html=1;exitX=1;exitY=0;exitDx=0;exitDy=0;verticalAlign=bottom;entryX=0.5;entryY=1;entryDx=0;entryDy=0;" parent="1" source="32" target="38" edge="1">
                    <mxGeometry relative="1" as="geometry">
                        <mxPoint x="197.35294117647072" y="400" as="targetPoint"/>
                    </mxGeometry>
                </mxCell>
                <mxCell id="32" value="Student Details" style="shape=parallelogram;html=1;strokeWidth=2;perimeter=parallelogramPerimeter;whiteSpace=wrap;rounded=1;arcSize=12;size=0.23;" parent="1" vertex="1">
                    <mxGeometry x="100" y="470" width="130" height="60" as="geometry"/>
                </mxCell>
                <mxCell id="38" value="Put Student" style="rounded=1;whiteSpace=wrap;html=1;absoluteArcSize=1;arcSize=14;strokeWidth=2;" parent="1" vertex="1">
                    <mxGeometry x="190" y="390" width="100" height="40" as="geometry"/>
                </mxCell>
                <mxCell id="39" value="Remove Student" style="rounded=1;whiteSpace=wrap;html=1;absoluteArcSize=1;arcSize=14;strokeWidth=2;" parent="1" vertex="1">
                    <mxGeometry x="80" y="390" width="100" height="40" as="geometry"/>
                </mxCell>
                <mxCell id="42" value="" style="edgeStyle=none;html=1;verticalAlign=bottom;entryX=0.5;entryY=1;entryDx=0;entryDy=0;" parent="1" source="40" target="61" edge="1">
                    <mxGeometry relative="1" as="geometry">
                        <mxPoint x="600" y="310" as="targetPoint"/>
                    </mxGeometry>
                </mxCell>
                <mxCell id="60" style="edgeStyle=none;html=1;exitX=0.75;exitY=0;exitDx=0;exitDy=0;entryX=0.75;entryY=1;entryDx=0;entryDy=0;dashed=1;verticalAlign=bottom;startArrow=none;" parent="1" source="61" edge="1">
                    <mxGeometry relative="1" as="geometry">
                        <mxPoint x="626.25" y="310" as="targetPoint"/>
                    </mxGeometry>
                </mxCell>
                <mxCell id="63" style="edgeStyle=none;html=1;exitX=0.75;exitY=0;exitDx=0;exitDy=0;entryX=0.75;entryY=1;entryDx=0;entryDy=0;dashed=1;verticalAlign=bottom;" parent="1" source="40" target="61" edge="1">
                    <mxGeometry relative="1" as="geometry"/>
                </mxCell>
                <mxCell id="40" value="Get Student" style="rounded=1;whiteSpace=wrap;html=1;absoluteArcSize=1;arcSize=14;strokeWidth=2;" parent="1" vertex="1">
                    <mxGeometry x="545" y="365" width="110" height="40" as="geometry"/>
                </mxCell>
                <mxCell id="59" style="edgeStyle=none;html=1;exitX=0.5;exitY=0;exitDx=0;exitDy=0;exitPerimeter=0;entryX=1;entryY=0.5;entryDx=0;entryDy=0;verticalAlign=bottom;dashed=1;" parent="1" source="46" target="40" edge="1">
                    <mxGeometry relative="1" as="geometry">
                        <Array as="points">
                            <mxPoint x="705" y="385"/>
                        </Array>
                    </mxGeometry>
                </mxCell>
                <mxCell id="65" value="end" style="edgeStyle=none;html=1;exitX=0.5;exitY=1;exitDx=0;exitDy=0;exitPerimeter=0;verticalAlign=bottom;" parent="1" source="46" edge="1">
                    <mxGeometry x="-0.8743" relative="1" as="geometry">
                        <mxPoint x="430" y="290" as="targetPoint"/>
                        <Array as="points">
                            <mxPoint x="705" y="640"/>
                            <mxPoint x="770" y="640"/>
                            <mxPoint x="770" y="240"/>
                            <mxPoint x="430" y="240"/>
                        </Array>
                        <mxPoint as="offset"/>
                    </mxGeometry>
                </mxCell>
                <mxCell id="46" value="foreach" style="strokeWidth=2;html=1;shape=mxgraph.flowchart.decision;whiteSpace=wrap;" parent="1" vertex="1">
                    <mxGeometry x="655" y="560" width="100" height="60" as="geometry"/>
                </mxCell>
                <mxCell id="48" value="" style="strokeWidth=2;html=1;shape=mxgraph.flowchart.annotation_2;align=left;labelPosition=right;pointerEvents=1;rotation=90;" parent="1" vertex="1">
                    <mxGeometry x="145" y="295" width="80" height="110" as="geometry"/>
                </mxCell>
                <mxCell id="50" value="" style="edgeStyle=none;html=1;verticalAlign=bottom;" parent="1" source="49" target="6" edge="1">
                    <mxGeometry relative="1" as="geometry"/>
                </mxCell>
                <mxCell id="49" value="Print Success" style="rounded=1;whiteSpace=wrap;html=1;absoluteArcSize=1;arcSize=14;strokeWidth=2;" parent="1" vertex="1">
                    <mxGeometry x="135" y="275" width="100" height="40" as="geometry"/>
                </mxCell>
                <mxCell id="51" value="End" style="ellipse;whiteSpace=wrap;html=1;rounded=1;strokeWidth=2;arcSize=14;" parent="1" vertex="1">
                    <mxGeometry x="325" y="640" width="120" height="60" as="geometry"/>
                </mxCell>
                <mxCell id="64" style="edgeStyle=none;html=1;exitX=1;exitY=0.75;exitDx=0;exitDy=0;entryX=1;entryY=0.5;entryDx=0;entryDy=0;entryPerimeter=0;dashed=1;verticalAlign=bottom;" parent="1" source="61" target="46" edge="1">
                    <mxGeometry relative="1" as="geometry">
                        <Array as="points">
                            <mxPoint x="755" y="305"/>
                        </Array>
                    </mxGeometry>
                </mxCell>
                <mxCell id="61" value="Print" style="rounded=1;whiteSpace=wrap;html=1;absoluteArcSize=1;arcSize=14;strokeWidth=2;" parent="1" vertex="1">
                    <mxGeometry x="545" y="275" width="110" height="40" as="geometry"/>
                </mxCell>
            </root>
        </mxGraphModel>
    </diagram>
</mxfile>